# Blender v2.79 (sub 0) OBJ File: 'box.blend'
# www.blender.org
mtllib box.mtl
o small_box_Cube.001
v 0.951875 0.000100 0.537504
v 0.951875 1.000100 0.537504
v 0.045568 0.000100 0.114885
v 0.045568 1.000100 0.114885
v 1.374494 0.000100 -0.368804
v 1.374494 1.000100 -0.368804
v 0.468186 0.000100 -0.791422
v 0.468186 1.000100 -0.791422
vn -0.4226 0.0000 0.9063
vn -0.9063 0.0000 -0.4226
vn 0.4226 0.0000 -0.9063
vn 0.9063 0.0000 0.4226
vn 0.0000 -1.0000 0.0000
vn 0.0000 1.0000 0.0000
usemtl wall
s off
f 1//1 2//1 4//1 3//1
f 3//2 4//2 8//2 7//2
f 7//3 8//3 6//3 5//3
f 5//4 6//4 2//4 1//4
f 3//5 7//5 5//5 1//5
f 8//6 4//6 2//6 6//6
o floor_Cube.016
v -2.000000 0.000000 2.000000
v -2.000000 0.000000 -2.000000
v 2.000000 0.000000 2.000000
v 2.000000 0.000000 -2.000000
vn 0.0000 1.0000 0.0000
usemtl wall
s off
f 11//7 12//7 10//7 9//7
o red_wall_Cube.015
v -2.000000 0.000000 2.000000
v -2.000000 4.000000 2.000000
v -2.000000 0.000000 -2.000000
v -2.000000 4.000000 -2.000000
vn 1.0000 0.0000 0.0000
usemtl red
s off
f 16//8 14//8 13//8 15//8
o back_wall.001_Cube.014
v -2.000000 0.000000 -2.000000
v -2.000000 4.000000 -2.000000
v 2.000000 0.000000 -2.000000
v 2.000000 4.000000 -2.000000
vn 0.0000 0.0000 1.0000
usemtl wall
s off
f 20//9 18//9 17//9 19//9
o light_Cube.012
v 0.400000 3.999900 -0.400000
v 0.400000 3.999900 0.400000
v -0.400000 3.999900 -0.400000
v -0.400000 3.999900 0.400000
vn 0.0000 -1.0000 0.0000
usemtl emissive
s off
f 21//10 22//10 24//10 23//10
o green_wall_Cube.008
v 2.000000 0.000000 2.000000
v 2.000000 4.000000 2.000000
v 2.000000 0.000000 -2.000000
v 2.000000 4.000000 -2.000000
vn -1.0000 0.0000 0.0000
usemtl green
s off
f 26//11 28//11 27//11 25//11
o tall_box_Cube.002
v -1.015749 0.000100 -0.285157
v -1.015749 2.000100 -0.285157
v -1.438367 0.000100 -1.191464
v -1.438367 2.000100 -1.191464
v -0.109441 0.000100 -0.707775
v -0.109441 2.000100 -0.707775
v -0.532059 0.000100 -1.614083
v -0.532059 2.000100 -1.614083
vn -0.9063 0.0000 0.4226
vn -0.4226 0.0000 -0.9063
vn 0.9063 0.0000 -0.4226
vn 0.4226 0.0000 0.9063
vn 0.0000 -1.0000 0.0000
vn 0.0000 1.0000 0.0000
usemtl wall
s off
f 29//12 30//12 32//12 31//12
f 31//13 32//13 36//13 35//13
f 35//14 36//14 34//14 33//14
f 33//15 34//15 30//15 29//15
f 31//16 35//16 33//16 29//16
f 36//17 32//17 30//17 34//17
o floor.001_Cube.000
v -2.000000 4.000000 2.000000
v -2.000000 4.000000 -2.000000
v 2.000000 4.000000 2.000000
v 2.000000 4.000000 -2.000000
vn 0.0000 1.0000 0.0000
usemtl wall.001
s off
f 39//18 40//18 38//18 37//18
