# Blender v2.79 (sub 0) OBJ File: 'sphere.blend'
# www.blender.org
mtllib sphere.mtl
o floor_Cube.016
v -2.000000 0.000000 2.000000
v -2.000000 0.000000 -2.000000
v 2.000000 0.000000 2.000000
v 2.000000 0.000000 -2.000000
vn 0.0000 1.0000 0.0000
usemtl wall
s off
f 3//1 4//1 2//1 1//1
o red_wall_Cube.015
v -2.000000 0.000000 2.000000
v -2.000000 4.000000 2.000000
v -2.000000 0.000000 -2.000000
v -2.000000 4.000000 -2.000000
vn 1.0000 0.0000 0.0000
usemtl red
s off
f 8//2 6//2 5//2 7//2
o back_wall.001_Cube.014
v -2.000000 0.000000 -2.000000
v -2.000000 4.000000 -2.000000
v 2.000000 0.000000 -2.000000
v 2.000000 4.000000 -2.000000
vn 0.0000 0.0000 1.0000
usemtl wall
s off
f 12//3 10//3 9//3 11//3
o light_Cube.012
v 0.400000 3.999900 -0.400000
v 0.400000 3.999900 0.400000
v -0.400000 3.999900 -0.400000
v -0.400000 3.999900 0.400000
vn 0.0000 -1.0000 0.0000
usemtl emissive
s off
f 13//4 14//4 16//4 15//4
o green_wall_Cube.008
v 2.000000 0.000000 2.000000
v 2.000000 4.000000 2.000000
v 2.000000 0.000000 -2.000000
v 2.000000 4.000000 -2.000000
vn -1.0000 0.0000 0.0000
usemtl green
s off
f 18//5 20//5 19//5 17//5
o floor.001_Cube.000
v -2.000000 4.000000 2.000000
v -2.000000 4.000000 -2.000000
v 2.000000 4.000000 2.000000
v 2.000000 4.000000 -2.000000
vn 0.0000 1.0000 0.0000
usemtl wall.001
s off
f 23//6 24//6 22//6 21//6
